<svg width="96" height="96" viewBox="0 0 96 96" fill="none" xmlns="http://www.w3.org/2000/svg">
<path d="M78.1395 0C68.2755 0 60.2791 7.9964 60.2791 17.8605C60.2791 27.7245 68.2755 35.7209 78.1395 35.7209C88.0036 35.7209 96 27.7245 96 17.8605C96 7.9964 88.0036 0 78.1395 0Z" fill="#BEB7C9"/>
<path fill-rule="evenodd" clip-rule="evenodd" d="M90.7285 73.9512C91.535 67.9527 91.5349 60.2697 91.5349 50.488V49.9773C91.5349 48.2236 91.5349 46.5358 91.5303 44.9146C91.5226 42.2356 91.5188 40.8961 90.7847 40.3631C90.0506 39.8301 88.5947 40.2995 85.6827 41.2384C83.306 42.0047 80.7711 42.4186 78.1395 42.4186C64.5764 42.4186 53.5814 31.4236 53.5814 17.8605C53.5814 15.2606 53.9854 12.7552 54.734 10.4034C55.6836 7.42045 56.1583 5.92896 55.6232 5.19704C55.0881 4.46512 53.7119 4.46512 50.9596 4.46512H45.5121C35.7304 4.46506 28.0474 4.46501 22.0488 5.27149C15.9019 6.09792 11.0249 7.82608 7.19291 11.658C3.36096 15.49 1.6328 20.367 0.80637 26.514C-0.000107721 32.5125 -6.16924e-05 40.1955 1.10433e-06 49.9772V50.4879C-6.16924e-05 60.2696 -0.000107721 67.9527 0.80637 73.9512C1.6328 80.0981 3.36096 84.9751 7.19291 88.8071C11.0249 92.639 15.9019 94.3672 22.0488 95.1936C28.0473 96.0001 35.7303 96.0001 45.512 96H46.0227C55.8044 96.0001 63.4875 96.0001 69.486 95.1936C75.633 94.3672 80.51 92.639 84.342 88.8071C88.1739 84.9751 89.9021 80.0981 90.7285 73.9512ZM25.6744 40.1861C23.8249 40.1861 22.3256 41.6854 22.3256 43.5349C22.3256 45.3844 23.8249 46.8837 25.6744 46.8837H43.5349C45.3844 46.8837 46.8837 45.3844 46.8837 43.5349C46.8837 41.6854 45.3844 40.1861 43.5349 40.1861H25.6744ZM22.3256 65.8605C22.3256 64.011 23.8249 62.5116 25.6744 62.5116H61.3954C63.2449 62.5116 64.7442 64.011 64.7442 65.8605C64.7442 67.71 63.2449 69.2093 61.3954 69.2093H25.6744C23.8249 69.2093 22.3256 67.71 22.3256 65.8605Z" fill="#BEB7C9"/>
</svg>
