<svg width="96" height="96" viewBox="0 0 96 96" fill="none" xmlns="http://www.w3.org/2000/svg">
<path fill-rule="evenodd" clip-rule="evenodd" d="M48.2677 1.07268e-06C58.5267 -6.14668e-05 66.5845 -0.000111161 72.8756 0.845708C79.3224 1.71246 84.4373 3.52491 88.4562 7.54379C92.4751 11.5627 94.2876 16.6776 95.1543 23.1244C96.0001 29.4155 96.0001 37.4733 96 47.7321V48.2677C96.0001 58.5266 96.0001 66.5845 95.1543 72.8756C94.2876 79.3224 92.4751 84.4373 88.4562 88.4562C84.4373 92.4751 79.3224 94.2876 72.8756 95.1543C66.5845 96.0001 58.5267 96.0001 48.2679 96H47.7323C37.4734 96.0001 29.4155 96.0001 23.1244 95.1543C16.6776 94.2876 11.5627 92.4751 7.54379 88.4562C3.52491 84.4373 1.71246 79.3224 0.845708 72.8756C-0.000111161 66.5845 -6.14668e-05 58.5267 1.07268e-06 48.2677V47.7323C-6.14668e-05 37.4733 -0.000111161 29.4155 0.845708 23.1244C1.71246 16.6776 3.52491 11.5627 7.54379 7.54379C11.5627 3.52491 16.6776 1.71246 23.1244 0.845708C29.4155 -0.000111161 37.4733 -6.14668e-05 47.7323 1.07268e-06H48.2677ZM46.5103 41.1033C47.6672 41.2588 49.2675 41.6752 50.6255 43.0332C51.9835 44.3912 52.3999 45.9915 52.5554 47.1484C52.6843 48.1068 52.6836 49.2212 52.683 50.1572L52.6829 69.0733C52.6829 71.6596 50.5863 73.7563 48 73.7563C45.4137 73.7563 43.3171 71.6596 43.3171 69.0733V50.3416C40.7308 50.3416 38.6341 48.245 38.6341 45.6587C38.6341 43.0724 40.7308 40.9758 43.3171 40.9758L43.5015 40.9757C44.4375 40.9751 45.5519 40.9744 46.5103 41.1033ZM47.9787 22.2439C45.4039 22.2439 43.3167 24.3405 43.3167 26.9268C43.3167 29.5131 45.4039 31.6098 47.9787 31.6098H48.0205C50.5953 31.6098 52.6825 29.5131 52.6825 26.9268C52.6825 24.3405 50.5953 22.2439 48.0205 22.2439H47.9787Z" fill="#BEB7C9"/>
</svg>
