<svg width="94" height="96" viewBox="0 0 94 96" fill="none" xmlns="http://www.w3.org/2000/svg">
<path d="M51.8205 4.8C51.8205 2.14903 49.6623 0 47 0C44.3377 0 42.1795 2.14903 42.1795 4.8V15.7082C41.8499 15.7345 41.5326 15.7672 41.2288 15.8079C39.5153 16.0373 37.7041 16.577 36.2144 18.0603C34.7248 19.5436 34.1827 21.3471 33.9523 23.0534C33.7431 24.6029 33.7433 26.5077 33.7436 28.5852V67.4148C33.7433 69.4923 33.7431 71.3971 33.9523 72.9466C34.1827 74.6529 34.7248 76.4564 36.2144 77.9397C37.7041 79.423 39.5153 79.9628 41.2288 80.1922C41.5326 80.2329 41.8499 80.2656 42.1795 80.2919V91.2C42.1795 93.851 44.3377 96 47 96C49.6623 96 51.8205 93.851 51.8205 91.2V80.2919C52.15 80.2656 52.4674 80.2329 52.7711 80.1922C54.4847 79.9628 56.2959 79.423 57.7856 77.9397C59.2752 76.4564 59.8173 74.6529 60.0477 72.9466C60.2569 71.3972 60.2567 69.4925 60.2564 67.4151V28.5852C60.2567 26.5078 60.2569 24.6029 60.0477 23.0534C59.8173 21.3471 59.2752 19.5436 57.7856 18.0603C56.2959 16.577 54.4847 16.0373 52.7711 15.8079C52.4674 15.7672 52.15 15.7345 51.8205 15.7082V4.8Z" fill="#BEB7C9"/>
<path d="M85.564 4.8C85.564 2.14903 83.4058 0 80.7435 0C78.0812 0 75.923 2.14903 75.923 4.8V10.9082C75.5935 10.9345 75.2761 10.9672 74.9724 11.0079C73.2588 11.2373 71.4476 11.777 69.958 13.2603C68.4683 14.7436 67.9263 16.5471 67.6959 18.2534C67.4867 19.8029 67.4869 21.7077 67.4871 23.7852V33.8148C67.4869 35.8923 67.4867 37.7971 67.6959 39.3466C67.9263 41.0529 68.4683 42.8564 69.958 44.3397C71.4476 45.823 73.2588 46.3628 74.9724 46.5922C75.2761 46.6329 75.5935 46.6656 75.923 46.6919V52.8C75.923 55.451 78.0812 57.6 80.7435 57.6C83.4058 57.6 85.564 55.451 85.564 52.8V46.6919C85.8936 46.6656 86.211 46.6329 86.5147 46.5922C88.2283 46.3628 90.0395 45.823 91.5291 44.3397C93.0188 42.8564 93.5608 41.0529 93.7912 39.3466C94.0004 37.7971 94.0002 35.8923 94 33.8148V23.7852C94.0002 21.7077 94.0004 19.8029 93.7912 18.2534C93.5608 16.5471 93.0188 14.7436 91.5291 13.2603C90.0395 11.777 88.2283 11.2373 86.5147 11.0079C86.211 10.9672 85.8936 10.9345 85.564 10.9082V4.8Z" fill="#BEB7C9"/>
<path d="M18.0769 28.8C18.0769 26.149 15.9187 24 13.2564 24C10.5941 24 8.43589 26.149 8.43589 28.8V34.9082C8.10634 34.9345 7.78901 34.9672 7.48528 35.0079C5.77169 35.2373 3.9605 35.777 2.47085 37.2603C0.981199 38.7436 0.439147 40.5471 0.20876 42.2534C-0.000454709 43.8029 -0.000229164 45.7077 1.67858e-05 47.7852V57.8148C-0.000229164 59.8923 -0.000454709 61.7971 0.20876 63.3466C0.439147 65.0529 0.981199 66.8564 2.47085 68.3397C3.9605 69.823 5.77169 70.3628 7.48528 70.5922C7.78901 70.6329 8.10634 70.6656 8.43589 70.6919V76.8C8.43589 79.451 10.5941 81.6 13.2564 81.6C15.9187 81.6 18.0769 79.451 18.0769 76.8V70.6919C18.4065 70.6656 18.7238 70.6329 19.0276 70.5922C20.7412 70.3628 22.5524 69.823 24.042 68.3397C25.5317 66.8564 26.0737 65.0529 26.3041 63.3466C26.5133 61.7971 26.5131 59.8923 26.5129 57.8148V47.7852C26.5131 45.7077 26.5133 43.8029 26.3041 42.2534C26.0737 40.5471 25.5317 38.7436 24.042 37.2603C22.5524 35.777 20.7412 35.2373 19.0276 35.0079C18.7238 34.9672 18.4065 34.9345 18.0769 34.9082V28.8Z" fill="#BEB7C9"/>
</svg>
