<svg width="96" height="96" viewBox="0 0 96 96" fill="none" xmlns="http://www.w3.org/2000/svg">
<path d="M74.9539 1.75838e-06H74.6275C71.3271 -5.28166e-05 68.6145 -9.8855e-05 66.4199 0.208564C64.1394 0.425394 62.075 0.890947 60.1972 2.04167C58.3329 3.1841 56.7655 4.75152 55.6231 6.61578C54.4723 8.4936 54.0068 10.558 53.79 12.8385C53.5813 15.0331 53.5813 17.7457 53.5814 21.0461V21.3725C53.5813 24.6728 53.5813 27.3855 53.79 29.5801C54.0068 31.8606 54.4723 33.925 55.6231 35.8028C56.7655 37.6671 58.3329 39.2345 60.1972 40.3769C62.075 41.5277 64.1394 41.9932 66.4199 42.21C68.6145 42.4187 71.3271 42.4187 74.6274 42.4186H74.9539C78.2543 42.4187 80.9669 42.4187 83.1615 42.21C85.442 41.9932 87.5064 41.5277 89.3842 40.3769C91.2485 39.2345 92.8159 37.6671 93.9583 35.8028C95.1091 33.925 95.5746 31.8606 95.7914 29.5801C96.0001 27.3855 96 24.6729 96 21.3726V21.0461C96 17.7457 96.0001 15.0331 95.7914 12.8385C95.5746 10.558 95.1091 8.4936 93.9583 6.61578C92.8159 4.75152 91.2485 3.1841 89.3842 2.04167C87.5064 0.890947 85.442 0.425394 83.1615 0.208564C80.9669 -9.85888e-05 78.2543 -5.28166e-05 74.9539 1.75838e-06Z" fill="#FE2948"/>
<path d="M21.0461 1.75838e-06H21.3725C24.6729 -5.2817e-05 27.3855 -9.7674e-05 29.5801 0.208564C31.8606 0.425394 33.925 0.890947 35.8028 2.04167C37.6671 3.1841 39.2345 4.75152 40.3769 6.61578C41.5277 8.4936 41.9932 10.558 42.21 12.8385C42.4187 15.0331 42.4187 17.7456 42.4186 21.0459V21.3726C42.4187 24.6728 42.4187 27.3856 42.21 29.5801C41.9932 31.8606 41.5277 33.925 40.3769 35.8028C39.2345 37.6671 37.6671 39.2345 35.8028 40.3769C33.925 41.5277 31.8606 41.9932 29.5801 42.21C27.3856 42.4187 24.673 42.4187 21.3727 42.4186H21.0461C17.7458 42.4187 15.0331 42.4187 12.8385 42.21C10.558 41.9932 8.4936 41.5277 6.61578 40.3769C4.75152 39.2345 3.1841 37.6671 2.04167 35.8028C0.890947 33.925 0.425394 31.8606 0.208564 29.5801C-9.7674e-05 27.3855 -5.28171e-05 24.6729 1.75838e-06 21.3726V21.0461C-5.2817e-05 17.7458 -9.7674e-05 15.0331 0.208564 12.8385C0.425394 10.558 0.890947 8.4936 2.04167 6.61578C3.1841 4.75152 4.75152 3.1841 6.61578 2.04167C8.4936 0.890947 10.558 0.425394 12.8385 0.208564C15.0331 -9.7674e-05 17.7458 -5.28171e-05 21.0461 1.75838e-06Z" fill="#FE2948"/>
<path d="M21.3725 53.5814H21.0461C17.7458 53.5813 15.0331 53.5813 12.8385 53.79C10.558 54.0068 8.4936 54.4723 6.61578 55.6231C4.75152 56.7655 3.1841 58.3329 2.04167 60.1972C0.890947 62.075 0.425394 64.1394 0.208564 66.4199C-9.85888e-05 68.6145 -5.28166e-05 71.3271 1.75838e-06 74.6275V74.9539C-5.28166e-05 78.2543 -9.8855e-05 80.9669 0.208564 83.1615C0.425394 85.442 0.890947 87.5064 2.04167 89.3842C3.1841 91.2485 4.75152 92.8159 6.61578 93.9583C8.4936 95.1091 10.558 95.5746 12.8385 95.7914C15.0331 96.0001 17.7457 96 21.0461 96H21.3726C24.6729 96 27.3855 96.0001 29.5801 95.7914C31.8606 95.5746 33.925 95.1091 35.8028 93.9583C37.6671 92.8159 39.2345 91.2485 40.3769 89.3842C41.5277 87.5064 41.9932 85.442 42.21 83.1615C42.4187 80.9669 42.4187 78.2543 42.4186 74.9539V74.6274C42.4187 71.3271 42.4187 68.6145 42.21 66.4199C41.9932 64.1394 41.5277 62.075 40.3769 60.1972C39.2345 58.3329 37.6671 56.7655 35.8028 55.6231C33.925 54.4723 31.8606 54.0068 29.5801 53.79C27.3856 53.5813 24.6728 53.5813 21.3725 53.5814Z" fill="#FE2948"/>
<path d="M74.9539 53.5814H74.6275C71.3271 53.5813 68.6145 53.5813 66.4199 53.79C64.1394 54.0068 62.075 54.4723 60.1972 55.6231C58.3329 56.7655 56.7655 58.3329 55.6231 60.1972C54.4723 62.075 54.0068 64.1394 53.79 66.4199C53.5813 68.6145 53.5813 71.3271 53.5814 74.6275V74.9539C53.5813 78.2543 53.5813 80.9669 53.79 83.1615C54.0068 85.442 54.4723 87.5064 55.6231 89.3842C56.7655 91.2485 58.3329 92.8159 60.1972 93.9583C62.075 95.1091 64.1394 95.5746 66.4199 95.7914C68.6145 96.0001 71.3271 96 74.6274 96H74.9539C78.2543 96 80.9669 96.0001 83.1615 95.7914C85.442 95.5746 87.5064 95.1091 89.3842 93.9583C91.2485 92.8159 92.8159 91.2485 93.9583 89.3842C95.1091 87.5064 95.5746 85.442 95.7914 83.1615C96.0001 80.9669 96 78.2543 96 74.9539V74.6274C96 71.3271 96.0001 68.6145 95.7914 66.4199C95.5746 64.1394 95.1091 62.075 93.9583 60.1972C92.8159 58.3329 91.2485 56.7655 89.3842 55.6231C87.5064 54.4723 85.442 54.0068 83.1615 53.79C80.9669 53.5813 78.2543 53.5813 74.9539 53.5814Z" fill="#FE2948"/>
</svg>
