<svg width="213" height="205" viewBox="0 0 213 205" fill="none" xmlns="http://www.w3.org/2000/svg">
<g filter="url(#filter0_d_54_705)">
<path d="M101.741 12.4651C103.239 7.85486 109.761 7.85485 111.259 12.4651L129.894 69.8186C130.564 71.8804 132.486 73.2763 134.653 73.2763L194.958 73.2763C199.806 73.2763 201.821 79.4794 197.9 82.3287L149.112 117.775C147.358 119.049 146.624 121.308 147.294 123.37L165.929 180.723C167.427 185.334 162.151 189.167 158.229 186.318L109.441 150.872C107.687 149.597 105.312 149.597 103.559 150.872L54.7708 186.318C50.8491 189.167 45.5724 185.334 47.0704 180.723L65.7057 123.37C66.3756 121.308 65.6417 119.049 63.8878 117.775L15.1 82.3287C11.1783 79.4794 13.1938 73.2763 18.0413 73.2763L78.3464 73.2763C80.5143 73.2763 82.4356 71.8804 83.1055 69.8186L101.741 12.4651Z" fill="#110E17"/>
<path d="M97.4573 11.0739C100.303 2.31439 112.696 2.31431 115.542 11.0739L134.177 68.4266C134.244 68.6328 134.437 68.7726 134.653 68.7726H194.959C204.169 68.7728 207.998 80.5583 200.547 85.972L151.759 121.418C151.584 121.546 151.51 121.772 151.577 121.979L170.212 179.331C173.058 188.091 163.033 195.375 155.582 189.962L106.794 154.515C106.619 154.388 106.381 154.388 106.206 154.515L57.4183 189.962C49.967 195.376 39.9412 188.091 42.7874 179.331L61.4225 121.979C61.4895 121.772 61.4161 121.546 61.2407 121.418L12.4524 85.972C5.00182 80.5583 8.83106 68.773 18.0409 68.7726H78.3462C78.563 68.7726 78.7552 68.6328 78.8222 68.4266L97.4573 11.0739Z" stroke="url(#paint0_linear_54_705)" stroke-width="9" stroke-linejoin="round"/>
</g>
<defs>
<filter id="filter0_d_54_705" x="0" y="0" width="213" height="204.351" filterUnits="userSpaceOnUse" color-interpolation-filters="sRGB">
<feFlood flood-opacity="0" result="BackgroundImageFix"/>
<feColorMatrix in="SourceAlpha" type="matrix" values="0 0 0 0 0 0 0 0 0 0 0 0 0 0 0 0 0 0 127 0" result="hardAlpha"/>
<feOffset dy="4"/>
<feGaussianBlur stdDeviation="2"/>
<feComposite in2="hardAlpha" operator="out"/>
<feColorMatrix type="matrix" values="0 0 0 0 0 0 0 0 0 0 0 0 0 0 0 0 0 0 0.25 0"/>
<feBlend mode="normal" in2="BackgroundImageFix" result="effect1_dropShadow_54_705"/>
<feBlend mode="normal" in="SourceGraphic" in2="effect1_dropShadow_54_705" result="shape"/>
</filter>
<linearGradient id="paint0_linear_54_705" x1="204.004" y1="2.52515" x2="135.687" y2="223.364" gradientUnits="userSpaceOnUse">
<stop stop-color="#473D55"/>
<stop offset="1" stop-color="#262233"/>
</linearGradient>
</defs>
</svg>
